<?xml version="1.0" standalone="no"?>
<!DOCTYPE svg PUBLIC "-//W3C//DTD SVG 20010904//EN"
 "http://www.w3.org/TR/2001/REC-SVG-20010904/DTD/svg10.dtd">
<svg version="1.0" xmlns="http://www.w3.org/2000/svg"
 width="512.000000pt" height="512.000000pt" viewBox="0 0 512.000000 512.000000"
 preserveAspectRatio="xMidYMid meet">
<metadata>
Created by potrace 1.14, written by Peter Selinger 2001-2017
</metadata>
<g transform="translate(0.000000,512.000000) scale(0.100000,-0.100000)"
fill="#000000" stroke="none">
<path d="M561 4556 c-8 -10 -10 -142 -9 -482 l3 -469 483 -3 482 -2 -2 482 -3
483 -471 3 c-390 2 -473 0 -483 -12z m817 -474 l2 -342 -342 2 -343 3 -3 329
c-2 236 1 333 9 342 10 12 71 14 343 12 l331 -3 3 -343z"/>
<path d="M835 4277 c-3 -7 -4 -100 -3 -207 l3 -195 205 0 205 0 0 205 0 205
-203 3 c-159 2 -204 0 -207 -11z"/>
<path d="M1673 4563 c-10 -3 -13 -41 -13 -139 l0 -134 70 0 70 0 0 -70 0 -69
-67 -3 -68 -3 0 -65 0 -65 67 -3 67 -3 3 -67 3 -67 68 -3 67 -3 0 -134 0 -135
-70 0 -69 0 -3 68 -3 67 -44 3 c-93 7 -91 10 -91 -143 l0 -135 -205 0 -205 0
0 -70 0 -70 -70 0 -69 0 -3 68 -3 67 -135 0 -135 0 -3 -67 -3 -68 -69 0 -69 0
-3 68 -3 67 -59 3 c-68 4 -76 -3 -76 -65 0 -69 4 -73 76 -73 l64 0 0 -140 0
-139 -67 -3 -68 -3 -3 -334 c-2 -261 1 -336 10 -343 7 -4 102 -8 211 -8 l198
0 -3 -137 -3 -138 -67 -3 -68 -3 0 71 0 70 -65 0 c-74 0 -79 -7 -73 -91 l3
-44 68 -3 67 -3 0 -54 c0 -88 -6 -85 147 -85 l134 0 -3 -67 -3 -68 -205 -5
-205 -5 -3 -39 c-2 -22 -1 -50 2 -63 l6 -23 410 0 410 0 0 65 0 65 140 0 140
0 0 -65 0 -64 -67 -3 -68 -3 -3 -199 c-2 -153 1 -201 10 -208 7 -4 39 -8 71
-8 l57 0 0 -65 0 -65 -57 0 c-32 0 -64 -4 -71 -8 -9 -7 -12 -41 -10 -138 l3
-129 68 -3 68 -3 -3 -67 -3 -67 -65 -5 -65 -5 0 -65 0 -65 135 0 135 0 3 138
3 137 69 0 69 0 3 -68 3 -67 65 0 65 0 3 68 3 67 64 0 65 0 0 -54 c0 -83 3
-86 76 -86 l64 0 0 140 0 140 275 0 275 0 0 58 c0 32 5 63 12 70 7 7 38 12 70
12 l58 0 0 65 0 65 -135 0 -134 0 -3 -62 -3 -63 -137 -3 -138 -3 0 65 0 65 68
3 67 3 3 67 3 67 67 3 67 3 5 135 5 135 203 3 202 2 0 -69 0 -70 -67 -3 -68
-3 0 -65 0 -65 67 -3 67 -3 3 -72 c2 -40 2 -132 0 -204 l-3 -133 -58 0 c-31 0
-62 -5 -69 -12 -7 -7 -12 -38 -12 -70 l0 -58 -59 0 c-35 0 -63 -5 -69 -13 -14
-17 -14 -237 0 -254 6 -8 34 -13 69 -13 l59 0 1 68 c1 37 1 100 -1 140 l-2 72
71 0 71 0 0 -127 c0 -71 4 -134 8 -141 7 -9 41 -12 138 -10 l129 3 3 67 3 67
-68 3 -68 3 -5 65 -5 65 -68 3 -68 3 3 67 3 67 137 3 137 3 3 67 3 67 65 0 65
0 3 -207 2 -208 64 0 c49 0 65 4 70 16 3 9 6 72 6 140 l0 124 65 0 64 0 3
-138 3 -137 67 -3 67 -3 3 -67 3 -67 135 0 135 0 3 137 3 137 67 3 67 3 3 129
c2 97 -1 131 -10 138 -7 4 -39 8 -70 8 l-58 0 0 65 0 65 54 0 c83 0 86 3 86
76 l0 63 -67 3 -68 3 -3 137 -3 137 68 3 68 3 3 63 3 62 -71 0 -70 0 0 -65 0
-66 -67 3 -68 3 -3 62 -3 62 68 3 68 3 0 65 0 65 -137 3 -137 3 -3 -68 -3 -68
-340 0 -340 0 0 135 0 135 65 5 65 5 3 137 3 137 -68 3 -68 3 -3 67 -3 67 -67
3 -67 3 -5 135 -5 135 -60 3 c-33 2 -63 9 -67 15 -4 7 -8 36 -8 65 l0 52 -135
0 -135 0 0 -135 0 -135 65 0 65 0 0 64 c0 73 3 76 86 76 l54 0 0 -140 0 -140
-64 0 c-73 0 -76 -3 -76 -86 l0 -54 -65 0 -66 0 3 -67 3 -68 61 -3 62 -3 3
-67 c3 -37 2 -98 -1 -137 l-5 -70 -132 -3 -132 -3 -3 138 -3 138 -68 3 -68 3
3 -138 3 -138 68 -3 67 -3 0 -274 0 -275 -70 0 -70 0 0 -70 0 -70 -70 0 -70 0
0 -135 0 -136 -67 3 -68 3 -3 68 -3 67 -64 0 -65 0 0 65 0 65 -70 0 -70 0 0
-135 0 -135 -70 0 -70 0 0 135 0 135 54 0 c90 0 86 -6 86 146 l0 134 70 0 70
0 0 -70 0 -70 135 0 135 0 0 70 0 70 70 0 71 0 -3 67 -3 68 -67 3 -68 3 0 64
0 65 -70 0 -70 0 0 70 0 70 -65 0 -66 0 3 -67 3 -68 63 -3 62 -3 0 -134 0
-135 -65 0 -64 0 -3 68 -3 67 -137 3 -138 3 0 64 0 65 -70 0 -70 0 0 70 0 70
70 0 69 0 3 -67 3 -68 44 -3 c93 -7 91 -10 91 143 l0 135 58 0 c32 0 63 5 70
12 7 7 12 38 12 70 l0 58 65 0 65 0 0 -57 c0 -79 5 -85 76 -81 l59 3 3 68 3
67 -71 0 -70 0 0 70 0 70 70 0 70 0 0 70 0 70 70 0 69 0 3 -67 3 -68 135 0
135 0 3 44 c7 93 10 91 -143 91 l-135 0 0 70 0 70 -70 0 -69 0 -3 68 -3 67
-68 3 -68 3 3 62 3 62 205 5 205 5 3 138 3 137 134 0 135 0 0 -54 c0 -83 3
-86 76 -86 l64 0 0 -57 c0 -32 4 -64 8 -71 7 -9 41 -12 138 -10 l129 3 3 138
3 137 -71 0 -70 0 0 140 0 140 70 0 71 0 -3 138 -3 137 -65 0 -65 0 -2 -70
c-1 -38 -2 -101 -2 -138 l-1 -68 -67 3 -68 3 -2 105 c-1 58 0 120 3 138 l5 32
64 0 65 0 0 65 0 65 -64 0 c-73 0 -76 -3 -76 -81 l0 -49 -60 0 c-70 0 -80 -11
-80 -89 l0 -51 -65 0 -64 0 -3 -67 -3 -68 -67 -3 -67 -3 -3 -67 -3 -67 -67 -3
-68 -3 0 276 0 275 -70 0 -70 0 0 70 0 69 -67 3 -68 3 0 65 0 65 208 3 207 2
0 -69 0 -70 68 -3 67 -3 5 -65 5 -65 60 0 60 0 3 138 3 137 -136 0 -135 0 0
135 c0 152 -6 142 90 147 l45 3 3 53 c5 79 -1 82 -133 82 -63 0 -120 -3 -129
-6 -12 -5 -16 -21 -16 -70 l0 -63 -67 -3 -68 -3 -3 -67 -3 -68 -134 0 -135 0
0 65 c0 78 3 77 -160 73 l-115 -3 -3 -67 -3 -68 -69 0 -70 0 0 134 c0 113 -2
135 -16 140 -18 7 -93 7 -111 -1z m545 -345 l3 -68 -71 0 -70 0 0 63 c0 35 3
67 7 71 4 4 34 6 68 4 l60 -3 3 -67z m-283 -138 l0 -65 -67 -3 -68 -3 0 71 0
71 68 -3 67 -3 0 -65z m283 -142 l3 -68 134 0 135 0 0 -135 0 -136 -67 3 -68
3 -3 68 -3 67 -64 0 -65 0 0 -140 0 -140 65 0 64 0 3 -67 3 -68 138 -3 138 -3
-3 -67 -3 -67 -65 -5 -65 -5 -3 -67 -3 -68 -63 0 c-73 0 -76 3 -76 86 l0 54
-135 0 -134 0 -3 68 -3 67 -65 5 -65 5 -3 138 -3 137 70 0 70 0 3 68 3 67 68
3 67 3 0 64 0 64 -67 3 -68 3 -3 68 -3 68 68 -3 68 -3 3 -67z m-423 -548 l0
-65 -68 -3 -68 -3 3 -67 3 -67 65 -5 65 -5 5 -135 5 -135 65 0 65 0 3 68 3 68
137 -3 137 -3 0 -65 0 -65 -67 -3 -68 -3 0 -64 0 -65 135 0 134 0 3 -67 3 -68
68 -3 67 -3 0 -69 0 -69 -67 -3 -68 -3 -3 -67 -3 -68 -64 0 -64 0 -3 138 -3
137 -137 3 -137 3 -3 -138 -3 -138 -65 -5 -65 -5 -3 -207 -2 -208 -54 0 c-89
0 -86 -6 -86 146 l0 134 -70 0 -69 0 -3 -67 -3 -68 -67 -3 -68 -3 0 -57 c0
-32 5 -63 12 -70 7 -7 38 -12 70 -12 l58 0 0 -70 0 -70 -119 0 c-66 0 -126 3
-135 6 -14 5 -16 27 -16 140 l0 134 65 0 65 0 0 70 0 69 -132 3 -133 3 -3 68
-3 67 -69 0 -70 0 0 140 0 140 -70 0 -70 0 0 -70 0 -71 -67 3 -68 3 0 65 0 65
68 3 68 3 -3 67 -3 67 -62 3 c-71 3 -77 12 -71 88 l3 39 65 5 65 5 5 135 5
135 205 5 205 5 3 68 3 67 204 0 205 0 0 70 0 71 68 -3 67 -3 0 -65z m1525
-280 l0 -70 -64 0 c-49 0 -65 4 -70 16 -8 21 -8 109 1 117 3 4 35 7 70 7 l63
0 0 -70z m-1242 -973 l3 -68 -68 3 -68 3 -3 68 -3 68 68 -3 68 -3 3 -68z
m1243 6 c2 -242 -2 -337 -14 -345 -6 -4 -33 -8 -59 -8 -35 0 -50 5 -57 18 -9
18 -14 353 -5 385 4 14 17 17 70 17 l64 0 1 -67z m554 -693 l0 -205 -205 0
-205 0 -3 195 c-1 107 0 200 3 207 3 11 48 13 207 11 l203 -3 0 -205z m-1940
-70 l0 -135 -67 -3 -68 -3 0 134 c0 73 3 137 7 141 4 4 34 6 68 4 l60 -3 0
-135z m2353 -67 l-3 -68 -67 -3 -68 -3 0 -134 0 -135 70 0 70 0 0 64 c0 73 3
76 86 76 l54 0 0 -140 0 -139 -67 -3 -68 -3 -5 -65 -5 -65 -67 -3 -68 -3 0
141 0 140 -70 0 -70 0 0 135 0 134 68 3 67 3 3 68 3 67 70 0 70 0 -3 -67z
m-2348 -413 l0 -70 -70 0 -70 0 0 63 c0 35 3 67 7 70 3 4 35 7 70 7 l63 0 0
-70z m274 54 c3 -9 6 -40 6 -70 l0 -54 -70 0 -70 0 0 70 0 70 64 0 c49 0 65
-4 70 -16z"/>
<path d="M1387 3173 c-9 -8 -9 -96 -1 -117 5 -12 21 -16 71 -16 l64 0 -3 -67
-3 -68 -67 -3 -68 -3 0 -64 0 -64 -132 -3 -133 -3 -3 -67 -3 -68 135 0 135 0
3 -67 3 -68 68 -3 67 -3 0 -69 0 -69 -67 -3 -68 -3 -3 -67 -3 -68 71 0 70 0 0
70 0 69 68 3 67 3 0 135 0 135 -137 3 -138 3 0 69 0 70 140 0 140 0 0 135 0
135 -70 0 -70 0 0 70 0 70 -63 0 c-35 0 -67 -3 -70 -7z"/>
<path d="M1807 2763 c-4 -3 -7 -35 -7 -70 l0 -63 70 0 70 0 0 64 c0 49 -4 65
-16 70 -21 8 -109 8 -117 -1z"/>
<path d="M3602 1453 l3 -68 65 0 65 0 0 65 0 65 -68 3 -68 3 3 -68z"/>
<path d="M3051 4556 c-7 -8 -11 -37 -9 -68 l3 -53 208 -3 207 -2 0 64 c0 49
-4 65 -16 70 -9 3 -98 6 -199 6 -145 0 -185 -3 -194 -14z"/>
<path d="M3607 4563 c-4 -3 -7 -222 -7 -485 l0 -478 485 0 485 0 0 479 c0 427
-2 480 -16 485 -21 8 -939 8 -947 -1z m807 -139 c14 -5 16 -45 16 -345 l0
-339 -345 0 -345 0 0 338 c0 186 3 342 7 345 8 9 646 9 667 1z"/>
<path d="M3880 4080 l0 -210 203 2 202 3 0 205 0 205 -202 3 -203 2 0 -210z"/>
<path d="M3053 4284 c-8 -4 -13 -25 -13 -54 0 -77 3 -80 77 -80 l64 0 -3 68
-3 67 -55 2 c-30 1 -61 -1 -67 -3z"/>
<path d="M3324 4136 c-3 -7 -4 -38 -2 -67 l3 -54 68 -3 67 -3 0 71 0 70 -65 0
c-46 0 -67 -4 -71 -14z"/>
<path d="M2777 3733 c-4 -3 -7 -35 -7 -70 l0 -64 68 3 67 3 3 44 c6 82 0 91
-67 91 -32 0 -61 -3 -64 -7z"/>
<path d="M3607 3454 c-4 -4 -7 -67 -7 -141 l0 -133 205 0 204 0 3 -67 3 -68
138 -3 137 -3 0 -134 0 -135 -70 0 -70 0 0 65 0 65 -70 0 -70 0 0 -65 0 -65
70 0 70 0 0 -70 0 -70 -135 0 -135 0 0 -70 0 -70 -70 0 -69 0 -3 138 -3 137
-65 0 -65 0 -3 -137 -3 -138 71 0 70 0 0 -280 0 -281 133 3 132 3 3 67 3 67
67 3 67 3 3 68 3 67 -71 0 -70 0 0 70 0 70 -65 0 -65 0 0 70 0 70 205 0 205 0
0 -135 c0 -153 -2 -150 91 -143 l44 3 3 137 3 137 67 3 67 3 0 270 0 270 -65
5 -65 5 -5 65 -5 65 -207 3 -208 2 0 70 0 70 70 0 71 0 -3 68 -3 67 -65 0 -65
0 -3 -67 -3 -68 -134 0 -134 0 -3 68 -3 67 -60 3 c-34 2 -64 0 -68 -4z m807
-690 c12 -5 16 -21 16 -70 l0 -64 -70 0 -70 0 0 70 0 70 54 0 c30 0 61 -3 70
-6z m-404 -624 l0 -71 -62 3 -63 3 -3 68 -3 67 66 0 65 0 0 -70z"/>
<path d="M4294 3447 c-3 -8 -4 -39 -2 -68 l3 -54 135 0 135 0 0 65 0 65 -133
3 c-106 2 -133 0 -138 -11z"/>
<path d="M3740 2970 l0 -70 65 0 c74 0 79 7 73 91 l-3 44 -67 3 -68 3 0 -71z"/>
<path d="M557 2063 c-13 -13 -7 -110 7 -122 8 -7 37 -11 68 -9 l53 3 3 68 3
67 -64 0 c-35 0 -67 -3 -70 -7z"/>
<path d="M557 1513 c-9 -8 -9 -926 -1 -947 5 -14 58 -16 485 -16 l479 0 0 485
0 485 -478 0 c-263 0 -482 -3 -485 -7z m823 -478 l0 -345 -339 0 c-300 0 -340
2 -345 16 -8 21 -8 659 1 667 3 4 159 7 345 7 l338 0 0 -345z"/>
<path d="M832 1038 l3 -203 205 0 205 0 3 203 2 202 -210 0 -210 0 2 -202z"/>
</g>
</svg>
